<svg width="79" height="122" viewBox="0 0 79 122" fill="none" xmlns="http://www.w3.org/2000/svg">
<path d="M33.9818 1.33434C15.8362 3.7617 1.9636 18.3029 0.273606 36.531C-0.889692 49.0708 3.84594 60.5298 12.0257 68.4713C15.1767 71.5307 18.1032 74.7962 20.7871 78.2403C28.4035 88.0093 33.62 99.4316 36.3175 111.518L38.4884 121.246C38.5846 121.681 38.9693 121.988 39.4136 121.988C39.8578 121.988 40.2425 121.681 40.3387 121.246L42.6424 110.904C45.2621 99.1522 50.2863 88.0367 57.6416 78.5059C60.2659 75.1076 63.1421 71.9063 66.2885 68.9614C73.9416 61.7938 78.7276 51.5989 78.7276 40.282C78.723 16.7824 58.1134 -1.89908 33.9818 1.33434Z" fill="url(#paint0_linear_1:517)"/>
<path d="M48.0267 51.9927C52.7861 47.2333 52.7861 39.5169 48.0267 34.7576C43.2674 29.9982 35.551 29.9982 30.7917 34.7576C26.0323 39.5169 26.0323 47.2333 30.7917 51.9927C35.551 56.752 43.2674 56.752 48.0267 51.9927Z" fill="white"/>
<defs>
<linearGradient id="paint0_linear_1:517" x1="50.6544" y1="82.7483" x2="21.9092" y2="-14.0039" gradientUnits="userSpaceOnUse">
<stop stop-color="#5565EE"/>
<stop offset="0.3091" stop-color="#5F75FF"/>
<stop offset="0.5137" stop-color="#6E89FA"/>
<stop offset="0.7638" stop-color="#6E89FA"/>
<stop offset="1" stop-color="#7D99FD"/>
</linearGradient>
</defs>
</svg>
