<svg width="225" height="87" viewBox="0 0 225 87" fill="none" xmlns="http://www.w3.org/2000/svg">
<path d="M223.009 73.0819L172.58 6.92957C169.566 2.97711 164.886 0.659668 159.916 0.659668H64.9015C59.9323 0.659668 55.2516 2.97711 52.238 6.92957L1.81317 73.0819C-2.42783 78.6465 1.53837 86.6613 8.53649 86.6613H216.286C223.284 86.6568 227.25 78.6419 223.009 73.0819Z" fill="url(#paint0_linear_1:508)"/>
<path d="M4.65256 73.2192C3.3198 73.2192 2.08322 73.6131 1.04358 74.2864C-1.85092 79.7319 2.03285 86.6567 8.53633 86.6567H216.286C222.789 86.6567 226.673 79.7319 223.779 74.2864C222.739 73.6131 221.502 73.2192 220.17 73.2192H4.65256Z" fill="#C9CDD3"/>
<path d="M90.7642 34.6793L126.845 73.2193H112.097L80.1662 39.3188L90.7642 34.6793Z" fill="white"/>
<path d="M165.82 1.80471C163.965 1.06276 161.968 0.664307 159.921 0.664307H141.592L14.6232 56.2782L1.81315 73.0819C1.61621 73.343 1.44217 73.6086 1.2773 73.8743L165.82 1.80471Z" fill="#FEE379"/>
<path d="M1.28183 73.8742L80.1663 39.3187L112.097 73.2193L1.28183 73.8742Z" fill="#86ADFF"/>
<path d="M14.6231 56.2782L141.592 0.664307H64.9015C59.9322 0.664307 55.2516 2.98175 52.238 6.93421L14.6231 56.2782Z" fill="#69CA9F"/>
<path d="M190.583 30.5482L186.686 25.4371L162.944 35.8151L141.198 12.5858L130.742 17.1657L152.478 40.3859L112.409 57.8995L116.998 62.7038L157.003 45.2223L183.214 73.2193H197.957L167.469 40.647L190.583 30.5482Z" fill="#C9CDD3"/>
<defs>
<linearGradient id="paint0_linear_1:508" x1="17.6003" y1="-12.8354" x2="179.824" y2="122.009" gradientUnits="userSpaceOnUse">
<stop stop-color="#F6F8FF"/>
<stop offset="1" stop-color="#DEE0ED"/>
</linearGradient>
</defs>
</svg>
